<svg width="16" height="16" viewBox="0 0 16 16" fill="none" xmlns="http://www.w3.org/2000/svg">
<g clip-path="url(#clip0_21_370)">
<path d="M8 15C11.8593 15 15 11.8593 15 8C15 4.14067 11.8594 1 8 1C4.14063 1 1 4.14067 1 8C1 11.8593 4.14067 15 8 15ZM8 1.93332C11.346 1.93332 14.0667 4.65398 14.0667 8C14.0667 11.346 11.346 14.0667 8 14.0667C4.65398 14.0667 1.93332 11.346 1.93332 8C1.93332 4.65398 4.65401 1.93332 8 1.93332Z" fill="#D0D0D0" stroke="#D0D0D0" stroke-width="0.5"/>
<path d="M10.0417 10.2305C10.128 10.3005 10.2306 10.3331 10.3333 10.3331C10.471 10.3331 10.6063 10.2725 10.6973 10.1581C10.8583 9.95747 10.8256 9.66347 10.625 9.50246L8.46664 7.7758V4.26646C8.46664 4.00979 8.25665 3.7998 7.99998 3.7998C7.74331 3.7998 7.53333 4.00979 7.53333 4.26646V7.99981C7.53333 8.14216 7.59867 8.27515 7.70832 8.3638L10.0417 10.2305Z" fill="#D0D0D0" stroke="#D0D0D0" stroke-width="0.5"/>
</g>
<defs>
<clipPath id="clip0_21_370">
<rect width="16" height="16" fill="white"/>
</clipPath>
</defs>
</svg>
