<svg width="25" height="25" viewBox="0 0 25 25" fill="none" xmlns="http://www.w3.org/2000/svg">
<g clip-path="url(#clip0_21_288)">
<path d="M11.2753 12.3714C11.9281 12.8066 13.0735 12.8066 13.7265 12.3713C13.7266 12.3713 13.7267 12.3712 13.7268 12.3711L24.8531 4.95353C24.4882 3.89805 23.485 3.1377 22.3071 3.1377H2.6945C1.51651 3.1377 0.513431 3.89805 0.148438 4.95353L11.275 12.3712C11.2751 12.3713 11.2752 12.3713 11.2753 12.3714Z" fill="#D92020"/>
<path d="M14.5385 13.5906C14.5383 13.5907 14.5382 13.5908 14.5382 13.5908C13.9668 13.9717 13.2333 14.1622 12.5 14.1622C11.7666 14.1622 11.0334 13.9718 10.4619 13.5908C10.4618 13.5907 10.4618 13.5907 10.4617 13.5906L0 6.61621V19.1687C0 20.6539 1.20836 21.8622 2.69367 21.8622H22.3064C23.7917 21.8622 25 20.6539 25 19.1687V6.61621L14.5385 13.5906Z" fill="#D92020"/>
</g>
<defs>
<clipPath id="clip0_21_288">
<rect width="25" height="25" fill="white"/>
</clipPath>
</defs>
</svg>
