<svg width="40" height="40" viewBox="0 0 40 40" fill="none" xmlns="http://www.w3.org/2000/svg">
<g clip-path="url(#clip0_21_199)">
<path d="M36.0273 4.75673L20.3375 0.0496973C20.1178 -0.0162402 19.8837 -0.0162402 19.6639 0.0496973L3.97375 4.75673C3.47812 4.9054 3.13867 5.36165 3.13867 5.87915V23.1382C3.13867 25.3831 4.0475 27.681 5.83977 29.9683C7.20859 31.7152 9.10242 33.4693 11.4684 35.182C15.4432 38.0592 19.3572 39.8242 19.5219 39.8979C19.6741 39.9661 19.8374 40.0002 20.0007 40.0002C20.164 40.0002 20.3273 39.9662 20.4795 39.8979C20.6441 39.8242 24.558 38.0592 28.5328 35.182C30.8988 33.4693 32.7926 31.7152 34.1615 29.9683C35.9538 27.6811 36.8624 25.3831 36.8624 23.1382V5.87915C36.8624 5.36165 36.5231 4.9054 36.0273 4.75673Z" fill="#CC2A04"/>
</g>
<defs>
<clipPath id="clip0_21_199">
<rect width="40" height="40" fill="white" transform="translate(0 0.000244141)"/>
</clipPath>
</defs>
</svg>
