<svg width="43" height="43" viewBox="0 0 43 43" fill="none" xmlns="http://www.w3.org/2000/svg">
<path d="M35.5768 13.0916C35.4422 11.6557 34.2301 10.5279 32.7595 10.5279H26.956C27.4669 9.62401 27.7602 8.58142 27.7602 7.47123C27.7602 4.03443 24.9641 1.23833 21.5273 1.23833C18.0905 1.23833 15.2944 4.03443 15.2944 7.47123C15.2944 8.58151 15.5877 9.62409 16.0985 10.5279H10.0526C8.57984 10.5279 7.36635 11.6589 7.23483 13.0979L0 38.7144V38.9321C0 40.4924 1.26934 41.7617 2.8296 41.7617H40.1703C41.7306 41.7617 42.9999 40.4924 42.9999 38.9321V38.7089L35.5768 13.0916ZM20.1209 33.0089C19.816 33.0089 19.5112 32.8835 19.3138 32.5606L15.9422 27.4494L14.9737 28.6689V32.1841C14.9737 32.6683 14.3819 32.9194 13.808 32.9194C13.2162 32.9194 12.6423 32.6683 12.6423 32.1841V20.5268C12.6423 20.0245 13.2161 19.8094 13.808 19.8094C14.3819 19.8094 14.9737 20.0245 14.9737 20.5268V25.4229L18.8475 20.1502C19.0268 19.8991 19.2421 19.8095 19.4932 19.8095C20.085 19.8095 20.8382 20.4192 20.8382 21.011C20.8382 21.1366 20.8203 21.298 20.6948 21.4593L17.4845 25.4766L21.3943 31.4308C21.4839 31.5563 21.5198 31.6997 21.5198 31.8433C21.5198 32.4171 20.8024 33.0089 20.1209 33.0089ZM30.5586 28.9198C30.5586 31.9148 28.7114 33.0268 26.3441 33.0268C23.9767 33.0268 22.1474 31.9149 22.1474 28.9198V23.9161C22.1474 20.9212 23.9947 19.8092 26.2723 19.8092C28.7473 19.8092 30.5586 21.1005 30.5586 23.2526C30.5586 24.1493 30.164 24.3644 29.3929 24.3644C28.7651 24.3644 28.245 24.1851 28.2271 23.6292C28.1733 22.7863 27.8863 21.8536 26.3619 21.8536C25.1603 21.8536 24.4788 22.5172 24.4788 23.9161V28.9198C24.4788 30.3189 25.1604 30.9825 26.3441 30.9825C27.5099 30.9825 28.2272 30.3189 28.2272 28.92V27.8618H26.7746C26.3083 27.8618 26.0572 27.4135 26.0572 26.9471C26.0572 26.4988 26.3083 26.0325 26.7746 26.0325H29.8234C30.2897 26.0325 30.5587 26.3911 30.5587 26.7858V28.9198H30.5586Z" fill="#CC2A04"/>
<rect x="9" y="19" width="25" height="16" fill="#CC2A04"/>
<path d="M15.954 31C15.8607 31 15.786 30.9673 15.73 30.902C15.674 30.8367 15.6553 30.7527 15.674 30.65L17.13 23.846L14.862 25.344C14.7593 25.4 14.666 25.4233 14.582 25.414C14.498 25.3953 14.4327 25.344 14.386 25.26L13.826 24.252C13.7887 24.168 13.784 24.0793 13.812 23.986C13.8493 23.8927 13.9193 23.818 14.022 23.762L17.732 21.298C17.7973 21.2607 17.8487 21.2373 17.886 21.228C17.9327 21.2093 17.9933 21.2 18.068 21.2H19.566C19.6593 21.2 19.734 21.2327 19.79 21.298C19.846 21.3633 19.8647 21.4473 19.846 21.55L17.9 30.65C17.8813 30.7527 17.83 30.8367 17.746 30.902C17.6713 30.9673 17.5873 31 17.494 31H15.954ZM20.2042 31C20.1015 31 20.0269 30.9673 19.9802 30.902C19.9335 30.8367 19.9195 30.7527 19.9382 30.65L20.1202 29.81C20.1389 29.7353 20.1809 29.6373 20.2462 29.516C20.3115 29.3853 20.4329 29.2593 20.6102 29.138L22.8362 27.304C23.6202 26.7813 24.2642 26.338 24.7682 25.974C25.2815 25.61 25.6735 25.2787 25.9442 24.98C26.2149 24.6813 26.3782 24.392 26.4342 24.112C26.5089 23.748 26.4715 23.4493 26.3222 23.216C26.1729 22.9733 25.8742 22.852 25.4262 22.852C25.1275 22.852 24.8615 22.9173 24.6282 23.048C24.4042 23.1693 24.2129 23.3327 24.0542 23.538C23.9049 23.7433 23.7835 23.9673 23.6902 24.21C23.6342 24.3313 23.5549 24.4153 23.4522 24.462C23.3589 24.5087 23.2655 24.532 23.1722 24.532H21.6882C21.6042 24.532 21.5389 24.504 21.4922 24.448C21.4549 24.3827 21.4409 24.3127 21.4502 24.238C21.5529 23.8087 21.7302 23.4027 21.9822 23.02C22.2342 22.6373 22.5469 22.2967 22.9202 21.998C23.3029 21.6993 23.7369 21.466 24.2222 21.298C24.7169 21.1207 25.2442 21.032 25.8042 21.032C26.5882 21.032 27.2182 21.1627 27.6942 21.424C28.1795 21.676 28.5062 22.026 28.6742 22.474C28.8515 22.922 28.8795 23.44 28.7582 24.028C28.6649 24.476 28.4829 24.8913 28.2122 25.274C27.9509 25.6567 27.6102 26.0253 27.1902 26.38C26.7795 26.7253 26.2942 27.0847 25.7342 27.458L23.7322 29.11H27.5402C27.6429 29.11 27.7175 29.1427 27.7642 29.208C27.8109 29.2733 27.8249 29.3573 27.8062 29.46L27.5542 30.65C27.5355 30.7527 27.4842 30.8367 27.4002 30.902C27.3255 30.9673 27.2369 31 27.1342 31H20.2042Z" fill="white"/>
</svg>
