<svg width="40" height="40" viewBox="0 0 40 40" fill="none" xmlns="http://www.w3.org/2000/svg">
<path d="M39.8125 10.8203V23H27.4968V7.30859L27.5 7.30469H35.1484C37.3601 7.30469 39.2312 8.79297 39.8125 10.8203Z" fill="#CC2A04"/>
<path d="M25.1531 6.13281V22.9297H0V6.13281C0 5.48562 0.524687 4.96094 1.17188 4.96094H23.9812C24.6284 4.96094 25.1531 5.48562 25.1531 6.13281Z" fill="#CC2A04"/>
<path d="M6.5625 35.0391C8.18052 35.0391 9.49219 33.7274 9.49219 32.1094C9.49219 30.4914 8.18052 29.1797 6.5625 29.1797C4.94448 29.1797 3.63281 30.4914 3.63281 32.1094C3.63281 33.7274 4.94448 35.0391 6.5625 35.0391Z" fill="#9F2304"/>
<path d="M15.4688 35.0391C17.0868 35.0391 18.3984 33.7274 18.3984 32.1094C18.3984 30.4914 17.0868 29.1797 15.4688 29.1797C13.8507 29.1797 12.5391 30.4914 12.5391 32.1094C12.5391 33.7274 13.8507 35.0391 15.4688 35.0391Z" fill="#9F2304"/>
<path d="M32.5781 35.0391C34.1961 35.0391 35.5078 33.7274 35.5078 32.1094C35.5078 30.4914 34.1961 29.1797 32.5781 29.1797C30.9601 29.1797 29.6484 30.4914 29.6484 32.1094C29.6484 33.7274 30.9601 35.0391 32.5781 35.0391Z" fill="#9F2304"/>
<path d="M40 25.2734V29.9609C40 30.6078 39.475 31.1328 38.8281 31.1328H37.7602C37.2925 28.6507 35.1039 26.8359 32.5781 26.8359C30.0523 26.8359 27.8638 28.6507 27.3961 31.1328H20.6508C20.1922 28.6898 18.043 26.8359 15.4688 26.8359C13.5977 26.8359 11.9516 27.8156 11.0156 29.2883C10.0797 27.8156 8.43359 26.8359 6.5625 26.8359C3.98828 26.8359 1.83906 28.6898 1.38047 31.1328H1.17188C0.525 31.1328 0 30.6078 0 29.9609V25.2734H40Z" fill="#9F2304"/>
</svg>
