<svg width="40" height="40" viewBox="0 0 40 40" fill="none" xmlns="http://www.w3.org/2000/svg">
<path d="M29.1956 12.1605L30.4001 5.32359C30.6348 3.98859 30.2696 2.64477 29.398 1.60648C28.5265 0.568281 27.2491 0 25.8937 0H14.1062C12.7507 0 11.4733 0.568281 10.6019 1.60641C9.73045 2.64453 9.36506 3.99219 9.59998 5.32719L10.8034 12.161C7.01631 14.9778 4.55811 19.4861 4.55811 24.558C4.55811 33.0728 11.4853 40 20.0001 40C28.5148 40 35.442 33.0728 35.442 24.558C35.4419 19.4858 32.9833 14.9773 29.1956 12.1605ZM27.1928 4.74227L26.1944 10.4145C24.2971 9.58031 22.2019 9.11609 20.0001 9.11609C17.7982 9.11609 15.7029 9.58039 13.8057 10.4145L12.8071 4.74227C12.7144 4.21539 12.9483 3.87234 13.0959 3.69648C13.2436 3.52062 13.5712 3.25641 14.1062 3.25641H25.8937C26.4287 3.25641 26.7562 3.52062 26.9039 3.69648C27.0515 3.87242 27.2854 4.21539 27.1928 4.74227Z" fill="#CC2A04"/>
<path d="M13.2035 29.12C12.6115 29.12 12.1155 29.048 11.7155 28.904C11.3235 28.76 11.0155 28.576 10.7915 28.352C10.5675 28.128 10.4155 27.884 10.3355 27.62C10.2555 27.348 10.2395 27.088 10.2875 26.84C10.3035 26.768 10.3395 26.708 10.3955 26.66C10.4595 26.612 10.5275 26.588 10.5995 26.588H11.9195C12.0075 26.588 12.0755 26.608 12.1235 26.648C12.1715 26.68 12.2115 26.74 12.2435 26.828C12.2595 27.012 12.3275 27.16 12.4475 27.272C12.5675 27.384 12.7235 27.464 12.9155 27.512C13.1075 27.552 13.3155 27.572 13.5395 27.572C13.9795 27.572 14.3475 27.468 14.6435 27.26C14.9475 27.052 15.1435 26.76 15.2315 26.384C15.3115 26 15.2475 25.724 15.0395 25.556C14.8315 25.388 14.5115 25.304 14.0795 25.304H12.7955C12.7155 25.304 12.6515 25.276 12.6035 25.22C12.5555 25.164 12.5435 25.096 12.5675 25.016L12.6875 24.428C12.7035 24.332 12.7355 24.252 12.7835 24.188C12.8395 24.124 12.8915 24.076 12.9395 24.044L15.4115 22.148H12.0275C11.9395 22.148 11.8715 22.12 11.8235 22.064C11.7835 22.008 11.7715 21.94 11.7875 21.86L11.9915 20.9C12.0075 20.812 12.0475 20.74 12.1115 20.684C12.1835 20.628 12.2635 20.6 12.3515 20.6H17.6795C17.7675 20.6 17.8315 20.628 17.8715 20.684C17.9195 20.74 17.9355 20.812 17.9195 20.9L17.7275 21.764C17.7115 21.852 17.6795 21.928 17.6315 21.992C17.5835 22.048 17.5355 22.092 17.4875 22.124L15.1235 24.056L15.2435 24.068C15.6995 24.116 16.0915 24.232 16.4195 24.416C16.7555 24.6 16.9915 24.864 17.1275 25.208C17.2715 25.544 17.2835 25.972 17.1635 26.492C17.0515 27.036 16.8035 27.504 16.4195 27.896C16.0435 28.288 15.5755 28.592 15.0155 28.808C14.4635 29.016 13.8595 29.12 13.2035 29.12ZM18.3702 27.452C18.4102 27.348 18.4702 27.256 18.5502 27.176C18.6302 27.096 18.7342 27.056 18.8622 27.056H20.1702C20.2502 27.056 20.3022 27.088 20.3262 27.152C20.3582 27.216 20.3542 27.28 20.3142 27.344L18.9822 29.576C18.9342 29.656 18.8742 29.728 18.8022 29.792C18.7302 29.864 18.6342 29.9 18.5142 29.9H17.7342C17.6702 29.9 17.6182 29.872 17.5782 29.816C17.5382 29.76 17.5342 29.696 17.5662 29.624L18.3702 27.452ZM24.6263 29.132C23.9303 29.132 23.3503 29.02 22.8863 28.796C22.4223 28.564 22.0863 28.264 21.8783 27.896C21.6783 27.52 21.6103 27.112 21.6743 26.672C21.6903 26.6 21.7263 26.54 21.7823 26.492C21.8383 26.444 21.9023 26.42 21.9743 26.42H23.3303C23.4263 26.42 23.5023 26.444 23.5583 26.492C23.6223 26.532 23.6543 26.588 23.6543 26.66C23.6623 26.876 23.7143 27.052 23.8103 27.188C23.9143 27.324 24.0463 27.424 24.2063 27.488C24.3743 27.552 24.5623 27.584 24.7703 27.584C25.0343 27.584 25.2863 27.532 25.5263 27.428C25.7663 27.316 25.9743 27.156 26.1503 26.948C26.3263 26.74 26.4463 26.484 26.5103 26.18C26.5983 25.772 26.5463 25.448 26.3543 25.208C26.1703 24.968 25.8623 24.848 25.4303 24.848C25.2223 24.848 25.0423 24.872 24.8903 24.92C24.7463 24.968 24.6183 25.028 24.5063 25.1C24.3943 25.164 24.2943 25.224 24.2063 25.28C24.1263 25.328 24.0423 25.352 23.9543 25.352H22.6223C22.5423 25.352 22.4823 25.324 22.4423 25.268C22.4103 25.204 22.4063 25.132 22.4303 25.052L23.7143 20.948C23.7543 20.836 23.8143 20.752 23.8943 20.696C23.9743 20.632 24.0623 20.6 24.1583 20.6H28.8143C28.9023 20.6 28.9663 20.628 29.0063 20.684C29.0543 20.74 29.0703 20.812 29.0543 20.9L28.8503 21.86C28.8263 21.94 28.7823 22.008 28.7183 22.064C28.6543 22.12 28.5783 22.148 28.4903 22.148H25.0223L24.4703 23.912C24.6463 23.808 24.8543 23.716 25.0943 23.636C25.3423 23.548 25.6783 23.504 26.1023 23.504C26.4863 23.504 26.8383 23.572 27.1583 23.708C27.4863 23.836 27.7623 24.024 27.9863 24.272C28.2103 24.52 28.3663 24.816 28.4543 25.16C28.5423 25.504 28.5423 25.884 28.4543 26.3C28.3343 26.876 28.1143 27.376 27.7943 27.8C27.4743 28.224 27.0503 28.552 26.5223 28.784C25.9943 29.016 25.3623 29.132 24.6263 29.132Z" fill="white"/>
</svg>
