<svg width="25" height="29" viewBox="0 0 25 29" fill="none" xmlns="http://www.w3.org/2000/svg">
<path d="M12.5007 0C6.21839 0 1.10742 4.98013 1.10742 11.1016C1.10742 13.061 1.63872 14.9874 2.64382 16.6725C2.87814 17.0653 3.14007 17.4481 3.42246 17.8104L12.0056 29H12.9956L21.5788 17.8104C21.8612 17.4481 22.1231 17.0654 22.3575 16.6725C23.3626 14.9874 23.8939 13.061 23.8939 11.1016C23.8939 4.98013 18.7829 0 12.5007 0ZM12.5007 14.7832C10.4173 14.7832 8.72228 13.1316 8.72228 11.1016C8.72228 9.07151 10.4173 7.41992 12.5007 7.41992C14.584 7.41992 16.279 9.07151 16.279 11.1016C16.279 13.1316 14.584 14.7832 12.5007 14.7832Z" fill="#D92020"/>
</svg>
