<svg width="25" height="25" viewBox="0 0 25 25" fill="none" xmlns="http://www.w3.org/2000/svg">
<g clip-path="url(#clip0_21_286)">
<path fill-rule="evenodd" clip-rule="evenodd" d="M24.5435 21.9899C24.3775 22.1554 24.1773 22.367 23.965 22.5908C23.4353 23.153 22.7736 23.8518 22.3589 24.1352C20.1767 25.6263 17.2574 24.9128 15.1924 24.0524C12.4683 22.9174 9.50256 20.8253 6.83962 18.1621C4.17419 15.4986 2.0823 12.5319 0.947287 9.80937C0.0879124 7.74394 -0.627078 4.82402 0.86428 2.64141C1.14748 2.22637 1.84792 1.56567 2.40935 1.03496C2.63396 0.82334 2.84392 0.623388 3.00993 0.45791C3.30467 0.164637 3.70354 0 4.11933 0C4.53512 0 4.93399 0.164637 5.22873 0.45791L9.24377 4.47178C9.53689 4.7665 9.70142 5.16527 9.70142 5.58093C9.70142 5.9966 9.53689 6.39536 9.24377 6.69009L8.15002 7.78164C7.78475 8.14424 7.54632 8.6151 7.47023 9.12413C7.39413 9.63317 7.48444 10.1532 7.72771 10.6067C9.23209 13.4461 11.5546 15.7682 14.3942 17.2721C14.8477 17.5153 15.3676 17.6055 15.8765 17.5293C16.3854 17.4531 16.856 17.2145 17.2183 16.8491L18.3094 15.7575C18.6041 15.4642 19.003 15.2996 19.4188 15.2996C19.8346 15.2996 20.2335 15.4642 20.5282 15.7575L24.5435 19.7721C24.8366 20.0667 25.0011 20.4654 25.0011 20.881C25.0011 21.2966 24.8366 21.6953 24.5435 21.9899Z" fill="#D92020"/>
</g>
<defs>
<clipPath id="clip0_21_286">
<rect width="25" height="25" fill="white"/>
</clipPath>
</defs>
</svg>
